<svg width="89" height="37" viewBox="0 0 89 37" fill="none" xmlns="http://www.w3.org/2000/svg">
<g clip-path="url(#clip0)">
<path d="M81.55 4.0499V0.449902H76.1V26.0999H81.7V12.1499C81.7 8.3999 84.45 5.5999 88.85 5.5999V0.149902C84.75 0.149902 82.5 2.0499 81.55 4.0499Z" fill="black"/>
<path d="M71.33 4.19995V0.449951H52.83V5.04995H64.83L52.53 22.4V26.1H71.83V21.5499H59.08L71.33 4.19995Z" fill="black"/>
<path d="M47.76 4.19995V0.449951H29.26V5.04995H41.26L28.96 22.4V26.1H48.26V21.5499H35.51L47.76 4.19995Z" fill="black"/>
<path d="M13.3 5.58C17.56 5.58 21.03 9.05 21.03 13.31C21.03 17.57 17.56 21.04 13.3 21.04C9.04 21.04 5.57 17.57 5.57 13.31C5.57 9.05 9.04 5.58 13.3 5.58ZM13.3 0C5.95 0 0 5.95 0 13.3C0 20.65 5.95 26.6 13.3 26.6C20.65 26.6 26.6 20.65 26.6 13.3C26.6 5.95 20.65 0 13.3 0Z" fill="black"/>
<path d="M13.28 30C11.38 30 9.78003 31.55 9.78003 33.5C9.78003 35.45 11.33 37 13.28 37C15.23 37 16.83 35.45 16.83 33.5C16.83 31.55 15.23 30 13.28 30Z" fill="black"/>
</g>
<defs>
<clipPath id="clip0">
<rect width="88.85" height="37" fill="white"/>
</clipPath>
</defs>
</svg>
